<?xml version="1.0" encoding="UTF-8"?><svg id="b" xmlns="http://www.w3.org/2000/svg" viewBox="0 0 60.48 68.4"><g id="c"><path id="d" d="M21.12,43.78v-3.99l-3.44-1.96-3.44-2.03-3.44-1.96-3.44-1.96v15.84l3.44,1.96,3.44,2.03,3.44,2.03,3.44,2.03v-3.99l3.44,2.03,3.44,2.03v11.97L.61,51.95v-31.93l3.38,1.96,3.38,1.96,3.44,1.96,3.44,1.96,3.44,1.96,3.44,2.03,3.44,1.96,3.44,2.03v11.97l-3.44-2.03-3.44-2.03h0Z" style="fill:#fff; stroke:#f1f2f2; stroke-linejoin:round; stroke-width:1.23px;"/><path id="e" d="M59.87,20.02l-3.38,1.96-3.44,1.96-3.38,1.96-3.44,1.96-3.44,1.96-3.44,2.03-3.44,1.96-3.5,2.03v31.93l7-3.99-.06-.06v-19.96l3.44-2.03v20.08l6.88-3.99v-20.02l3.38-2.03v20.08l6.82-3.93v-31.93h0Z" style="fill:#fff; stroke:#f1f2f2; stroke-linejoin:round; stroke-width:1.23px;"/><path id="f" d="M37.09,4.54l-3.32,1.9-3.44,2.03-3.44-1.96-3.44-1.96,3.44-2.03,3.32-1.9,3.38,1.96s3.5,1.96,3.5,1.96Z" style="fill:#fff; stroke:#f1f2f2; stroke-linejoin:round; stroke-width:1.23px;"/><path id="g" d="M47.34,10.5l-3.19,1.9-3.44,1.96-3.44-1.96-3.5-1.96,3.44-1.96,3.32-1.9,3.38,1.96,3.44,1.96h0Z" style="fill:#fff; stroke:#f1f2f2; stroke-linejoin:round; stroke-width:1.23px;"/><path id="h" d="M57.41,16.33l-3.19,1.84-3.44,1.96-3.25-1.84-3.38-1.96,3.38-2.03,3.25-1.84,3.38,1.96,3.25,1.9h0Z" style="fill:#fff; stroke:#f1f2f2; stroke-linejoin:round; stroke-width:1.23px;"/><path id="i" d="M16.58,16.46l-3.44,2.03-3.19,1.84-3.44-2.03-3.44-1.96,3.07-1.78,2.33-1.35,1.11-.68,7,3.93h0Z" style="fill:#fff; stroke:#f1f2f2; stroke-linejoin:round; stroke-width:1.23px;"/><path id="j" d="M26.89,10.5l-3.44,1.96-3.44,2.03-3.5-1.96-3.44-1.96,3.44-2.03,3.44-2.03,3.44,1.96h.06s3.44,2.03,3.44,2.03Z" style="fill:#fff; stroke:#f1f2f2; stroke-linejoin:round; stroke-width:1.23px;"/><path id="k" d="M26.96,22.35l-3.44,1.96-3.25,1.9-3.44-1.96-3.44-1.96,3.19-1.84,3.44-2.03,3.5,1.96,3.44,1.96h0Z" style="fill:#fff; stroke:#f1f2f2; stroke-linejoin:round; stroke-width:1.23px;"/><path id="l" d="M37.27,16.33l-3.44,2.03-3.44,1.96-3.44-1.9-3.44-1.96,3.38-2.03,3.5-1.96,3.44,1.96s3.44,1.9,3.44,1.9Z" style="fill:#fff; stroke:#f1f2f2; stroke-linejoin:round; stroke-width:1.23px;"/><path id="m" d="M37.09,28.06l-3.44,1.96-3.44,1.96-.18-.06-2.95-1.72-3.44-1.96,3.38-1.96,3.38-1.96,3.44,1.9,3.25,1.84Z" style="fill:#fff; stroke:#f1f2f2; stroke-linejoin:round; stroke-width:1.23px;"/><path id="n" d="M47.4,22.11l-3.44,1.96-3.44,2.03-3.25-1.84-3.44-1.96,3.44-1.96,3.44-2.03,3.44,1.96,3.25,1.84Z" style="fill:#fff; stroke:#f1f2f2; stroke-linejoin:round; stroke-width:1.23px;"/></g></svg>