<?xml version="1.0" encoding="UTF-8"?>
<svg id="Layer_1" data-name="Layer 1" xmlns="http://www.w3.org/2000/svg" viewBox="0 0 841.89 235.89">
  <defs>
    <style>
      .cls-1 {
        fill: #7b7f80;
      }

      .cls-2 {
        fill: #2aa8e0;
      }
    </style>
  </defs>
  <path class="cls-2" d="M87.06,209.23c-5.78,5.7-13.25,8.35-21.37,8.35-20.89,0-29.72-14.38-29.8-29-.08-14.7,9.48-29.64,29.8-29.64,7.63,0,14.86,2.89,20.65,8.59l-7.07,6.83c-3.69-3.62-8.68-5.3-13.58-5.3-13.57,0-19.44,10.12-19.36,19.52.08,9.32,5.46,19.04,19.36,19.04,4.9,0,10.44-2.01,14.14-5.7l7.23,7.31Z"/>
  <path class="cls-2" d="M141.52,160.14v32.21c0,16.63-10.2,25.14-24.34,25.14s-24.98-8.19-24.98-25.14v-32.21h10.52v32.21c0,10.12,5.78,15.5,14.54,15.5s13.74-5.86,13.74-15.5v-32.21h10.52Z"/>
  <polygon class="cls-2" points="692.4 144.66 692.4 133 682.32 127.14 672.25 121.29 662.23 115.5 652.21 109.68 652.21 156.1 662.23 161.98 672.25 167.87 682.32 173.77 692.4 179.7 692.4 168 702.53 173.92 712.68 179.87 712.68 215 632.28 168.58 632.28 74.94 642.23 80.69 652.21 86.45 662.23 92.24 672.25 98.02 682.32 103.84 692.4 109.66 702.53 115.5 712.68 121.36 712.68 156.47 702.53 150.56 692.4 144.66"/>
  <polygon class="cls-2" points="806 74.94 796.04 80.69 786.07 86.45 776.04 92.24 766.02 98.02 755.96 103.84 745.87 109.66 735.74 115.5 735.74 115.52 725.62 121.36 725.62 215 746.02 203.22 745.87 203.04 745.87 144.68 755.96 138.79 755.96 197.47 776.04 185.88 776.04 127.11 786.07 121.27 786.07 180.09 806 168.58 806 74.94"/>
  <polygon class="cls-2" points="739.19 29.72 729.58 35.31 719.49 41.17 709.32 35.37 699.28 29.64 709.41 23.77 719.15 18.15 729.06 23.88 739.19 29.72"/>
  <polygon class="cls-1" points="769.32 47.12 759.84 52.63 749.79 58.47 739.71 52.72 729.6 46.94 739.66 41.1 739.69 41.1 749.23 35.54 749.26 35.54 759.3 41.34 769.32 47.12"/>
  <polygon class="cls-2" points="798.82 64.16 789.45 69.57 779.41 75.37 769.84 69.92 759.84 64.2 769.86 58.36 779.3 52.89 789.25 58.65 798.82 64.16"/>
  <polygon class="cls-2" points="679.11 64.64 669.02 70.48 659.75 75.86 649.64 70.05 639.5 64.18 648.52 58.95 655.36 54.98 658.63 53.08 679.11 64.64"/>
  <polygon class="cls-1" points="709.39 47.03 699.3 52.89 699.28 52.89 689.19 58.75 679 52.98 678.98 52.98 668.8 47.22 678.96 41.36 689.11 35.5 699.19 41.23 699.21 41.23 709.39 47.03"/>
  <polygon class="cls-1" points="709.58 81.83 699.54 87.65 689.88 93.26 679.86 87.48 669.82 81.68 679.21 76.23 689.28 70.37 689.3 70.37 699.45 76.1 709.58 81.83"/>
  <polygon class="cls-2" points="739.75 64.29 729.69 70.13 719.64 75.97 709.52 70.26 699.39 64.51 709.45 58.67 719.54 52.8 729.64 58.56 739.75 64.29"/>
  <polygon class="cls-2" points="739.23 98.56 729.19 104.36 719.15 110.15 718.61 109.85 709.84 104.79 699.88 99.03 709.67 93.34 719.69 87.52 729.75 93.21 739.23 98.56"/>
  <polygon class="cls-1" points="769.38 81.14 759.34 86.96 749.3 92.76 739.79 87.37 729.73 81.68 739.77 75.86 749.82 70.02 759.84 75.74 769.38 81.14"/>
  <path class="cls-2" d="M197.59,176.37c0,4.34-2.09,8.51-7.31,10.84,6.59,2.01,9,9,9,12.53,0,12.53-9.4,16.55-21.05,16.55h-26.67v-56.23h26.67c11.09,0,19.36,4.98,19.36,16.31M162.01,182.64h16.23c6.67,0,8.84-2.81,8.84-6.02,0-2.57-2.09-6.91-8.84-6.91h-16.23v12.93ZM162.01,206.41h16.23c4.34,0,10.52-1.44,10.52-6.75s-6.18-7.71-10.52-7.71h-16.23v14.46Z"/>
  <polygon class="cls-2" points="248.68 216.29 248.68 205.85 217.11 205.85 217.11 193.16 247.56 193.16 247.56 183.28 206.59 183.28 206.59 216.29 248.68 216.29"/>
  <rect class="cls-1" x="206.59" y="160.06" width="42.09" height="10.28"/>
  <polygon class="cls-2" points="322.1 175.57 303.78 199.99 301.7 199.99 283.78 175.49 283.78 216.37 273.18 216.37 273.18 160.14 285.39 160.14 302.98 184.32 320.57 160.14 332.7 160.14 332.7 216.37 322.1 216.37 322.1 175.57"/>
  <path class="cls-2" d="M382.59,205.69h-29.4l-4.82,10.6h-11.49l25.22-56.23h11.57l25.22,56.23h-11.57l-4.74-10.6ZM367.89,171.87l-10.44,23.94h20.89l-10.44-23.94Z"/>
  <path class="cls-2" d="M437.53,173.64c-1.93-3.22-7.23-6.27-13.33-6.27-7.87,0-11.65,3.29-11.65,7.47,0,4.9,5.78,6.27,12.53,7.07,11.73,1.45,22.65,4.5,22.65,17.92,0,12.53-11.08,17.91-23.62,17.91-11.49,0-20.32-3.54-24.5-13.82l8.84-4.58c2.49,6.18,8.99,8.91,15.82,8.91s12.94-2.32,12.94-8.43c0-5.3-5.55-7.47-13.01-8.28-11.49-1.36-22.09-4.42-22.09-17.03,0-11.57,11.4-16.31,21.77-16.39,8.76,0,17.83,2.49,22.09,11.17l-8.44,4.34Z"/>
  <polygon class="cls-2" points="470.46 169.7 452.63 169.7 452.63 160.06 498.9 160.06 498.9 169.7 481.07 169.7 481.07 216.29 470.46 216.29 470.46 169.7"/>
  <rect class="cls-1" x="505.17" y="160.06" width="42.09" height="10.28"/>
  <polygon class="cls-2" points="547.26 216.29 547.26 205.85 515.69 205.85 515.69 193.16 546.13 193.16 546.13 183.28 505.17 183.28 505.17 216.29 547.26 216.29"/>
  <path class="cls-2" d="M605.33,216.29h-12.61l-16.39-18.8h-10.2v18.8h-10.6v-56.31c8.92,0,17.83.08,26.75.08,13.25.08,20.24,8.92,20.24,18.64,0,7.71-3.54,15.5-14.22,17.67l17.03,19.2v.72ZM566.13,169.95v17.99h16.15c6.74,0,9.64-4.5,9.64-9s-2.97-8.99-9.64-8.99h-16.15Z"/>
  <path class="cls-2" d="M137.38,118.73c-3.34,0-5.99-.76-7.97-2.27-1.98-1.51-3.51-3.28-4.6-5.3-1.32,2.48-3.22,4.37-5.7,5.64-2.48,1.28-5.35,1.92-8.61,1.92h-53.54c-3.03,0-5.59-.47-7.68-1.4-2.1-.93-3.79-2.17-5.07-3.72-1.28-1.55-2.21-3.37-2.79-5.47-.58-2.1-.87-4.27-.87-6.52v-19.67h13.27v17.34c0,2.18.31,3.71.93,4.6.62.89,1.63,1.34,3.03,1.34h52.26c1.78,0,2.95-.54,3.49-1.63.54-1.08.82-2.56.82-4.42v-26.77h13.27v22.11c0,3.1.72,5.67,2.15,7.68,1.43,2.02,4.09,3.03,7.97,3.03h4.31c1.16,0,1.98.31,2.44.93.47.62.7,1.36.7,2.21v7.1c0,.62-.25,1.32-.76,2.09-.51.78-1.3,1.17-2.38,1.17h-4.66ZM77.44,133.34c0-1.88.67-3.46,2.02-4.76,1.35-1.29,3.02-1.94,5.03-1.94s3.56.65,4.9,1.94c1.34,1.29,2.02,2.88,2.02,4.76s-.68,3.58-2.02,4.87c-1.34,1.29-2.98,1.94-4.9,1.94s-3.68-.64-5.03-1.94c-1.34-1.29-2.02-2.91-2.02-4.87"/>
  <path class="cls-2" d="M141.34,118.73c-1.17,0-1.98-.31-2.44-.93-.47-.62-.7-1.32-.7-2.1v-6.87c0-.85.25-1.67.76-2.44.5-.77,1.3-1.16,2.39-1.16h11.87c1.7,0,3.22-.08,4.54-.23,1.32-.16,2.44-.35,3.37-.58-1.4-1.32-2.79-2.79-4.19-4.42-1.4-1.63-2.68-3.24-3.84-4.83-1.16-1.59-2.17-3.1-3.02-4.54-.85-1.43-1.44-2.62-1.75-3.55l-.47-9.31c1.71-1.4,3.65-2.72,5.82-3.96,2.17-1.24,4.48-2.33,6.93-3.26,2.44-.93,4.95-1.67,7.51-2.21,2.56-.54,5.12-.82,7.68-.82,3.96,0,7.37.41,10.24,1.22,2.87.82,5.24,1.88,7.1,3.2,1.86,1.32,3.26,2.78,4.19,4.37.93,1.59,1.4,3.13,1.4,4.6,0,3.26-.85,6.91-2.56,10.94-1.71,4.03-5.04,8.38-10.01,13.03,1.63.23,4.35.35,8.15.35h9.89c1.24,0,2.09.31,2.56.93s.7,1.36.7,2.21v7.1c0,.62-.25,1.32-.76,2.09-.51.78-1.34,1.17-2.5,1.17h-10.12c-5.2,0-9.54-.54-13.04-1.63-3.49-1.09-6.17-2.17-8.03-3.26-2.95,1.71-6.15,2.95-9.6,3.72-3.45.78-6.85,1.17-10.18,1.17h-11.87ZM175.68,80.32c-2.56,0-5.28.33-8.15.99-2.87.66-5.2,1.53-6.98,2.62.31.7.89,1.71,1.74,3.03.85,1.32,1.9,2.76,3.14,4.31,1.24,1.55,2.58,3.07,4.02,4.54,1.43,1.48,2.89,2.72,4.36,3.72,1.71-1.01,3.32-2.21,4.83-3.61,1.52-1.4,2.81-2.83,3.9-4.31,1.08-1.47,1.94-2.91,2.56-4.31.62-1.4.93-2.64.93-3.73,0-.62-.31-1.14-.93-1.57-.62-.43-1.44-.76-2.44-.99-1.01-.23-2.12-.41-3.32-.53-1.2-.12-2.42-.17-3.66-.17"/>
  <path class="cls-2" d="M203.61,118.73c-1.17,0-1.98-.31-2.44-.93-.46-.62-.7-1.32-.7-2.09v-6.87c0-.85.25-1.67.76-2.44.51-.77,1.3-1.16,2.38-1.16h31.08c1.86,0,3.09-.51,3.67-1.52.58-1.01.88-2.44.88-4.31,0-3.34-.12-6.11-.35-8.32-.23-2.21-.82-3.98-1.75-5.3-.93-1.32-2.29-2.25-4.07-2.79-1.78-.54-4.23-.82-7.33-.82h-14.66v-11.76l22.58-35.85,10.94,7.33-17.81,27.35h1.51c3.57,0,6.83.41,9.78,1.22,2.95.81,5.49,2.15,7.62,4.01,2.13,1.86,3.78,4.31,4.95,7.33,1.17,3.03,1.75,6.79,1.75,11.29.07,4.42.97,7.55,2.67,9.37s4.31,2.73,7.8,2.73h4.3c1.09,0,1.86.31,2.33.93.47.62.7,1.36.7,2.21v7.1c0,.62-.25,1.32-.76,2.09-.51.78-1.26,1.17-2.27,1.17h-4.66c-3.41,0-6.11-.77-8.09-2.33-1.98-1.55-3.51-3.3-4.6-5.24-1.32,2.33-3.26,4.17-5.82,5.53-2.56,1.36-5.35,2.03-8.38,2.03h-32.01Z"/>
  <path class="cls-2" d="M266.34,118.73c-1.16,0-1.98-.31-2.44-.93-.47-.62-.7-1.32-.7-2.09v-6.87c0-.85.25-1.67.76-2.44.51-.78,1.3-1.17,2.38-1.17h4.54c4.81,0,7.21-3.63,7.21-10.9,0-3.71.6-7.16,1.8-10.33,1.2-3.17,2.89-5.9,5.07-8.18,2.17-2.28,4.71-4.06,7.62-5.34,2.91-1.28,6.11-1.92,9.6-1.92,3.88,0,7.27.66,10.18,1.98,2.91,1.32,5.31,3.13,7.22,5.46,1.9,2.32,3.32,5.11,4.25,8.36.93,3.25,1.4,6.81,1.4,10.68,0,3.02-.41,5.96-1.22,8.82-.82,2.87-2.15,5.4-4.02,7.61-1.86,2.21-4.25,3.97-7.16,5.29s-6.46,1.97-10.65,1.97c-1.71,0-3.42-.1-5.12-.29-1.71-.19-3.39-.58-5.06-1.17-1.67-.58-3.26-1.4-4.77-2.44-1.51-1.05-2.89-2.38-4.13-4.01-1.16,2.72-2.77,4.71-4.83,5.99-2.06,1.28-4.25,1.92-6.58,1.92h-5.35ZM301.96,105.93c3.65,0,6.34-1.12,8.09-3.38,1.75-2.25,2.62-4.96,2.62-8.15,0-2.02-.31-3.84-.93-5.47-.62-1.63-1.42-3.02-2.38-4.19-.97-1.16-2.1-2.06-3.38-2.68-1.28-.62-2.62-.93-4.02-.93-1.47,0-2.87.31-4.19.93-1.32.62-2.47,1.52-3.43,2.68-.97,1.17-1.75,2.56-2.33,4.19-.58,1.63-.87,3.45-.87,5.47,0,3.1.83,5.8,2.5,8.09,1.67,2.29,4.44,3.43,8.32,3.43"/>
  <path class="cls-2" d="M419.63,82.77c1.01,1.79,1.98,3.86,2.91,6.23.93,2.37,1.77,4.79,2.5,7.27.74,2.49,1.32,4.97,1.75,7.45.42,2.48.64,4.77.64,6.87,0,4.42-.72,8.61-2.15,12.57-1.44,3.96-3.57,7.43-6.4,10.42-2.83,2.99-6.34,5.35-10.53,7.1-4.19,1.75-9.04,2.62-14.55,2.62-6.05,0-11.17-.85-15.36-2.56-4.19-1.71-7.57-3.98-10.13-6.81s-4.42-6.05-5.59-9.66c-1.16-3.61-1.75-7.35-1.75-11.23s.62-7.51,1.86-11.35c1.24-3.84,2.99-7.39,5.24-10.65l11.29,6.4c-1.78,2.87-3.05,5.53-3.78,7.97s-1.11,4.98-1.11,7.62c0,2.09.39,4.15,1.17,6.17.77,2.02,1.98,3.82,3.61,5.41,1.63,1.59,3.71,2.85,6.23,3.78,2.52.93,5.49,1.4,8.91,1.4,3.18,0,5.99-.46,8.44-1.4,2.44-.93,4.52-2.19,6.23-3.78,1.7-1.59,2.99-3.47,3.84-5.64.85-2.17,1.28-4.54,1.28-7.1,0-3.49-.66-7.25-1.98-11.29-1.32-4.03-2.99-7.6-5.01-10.71l12.46-7.1ZM386.81,67.29c0-1.86.67-3.45,2.02-4.77,1.35-1.32,2.99-1.98,4.91-1.98s3.68.66,5.02,1.98c1.34,1.32,2.02,2.91,2.02,4.77s-.68,3.45-2.02,4.77c-1.35,1.32-3.02,1.98-5.02,1.98s-3.56-.66-4.91-1.98c-1.34-1.32-2.02-2.91-2.02-4.77"/>
  <path class="cls-2" d="M443.03,35.4h13.27v69.83h7.92c1.24,0,2.09.31,2.56.93.46.62.7,1.36.7,2.21v7.1c0,.62-.27,1.32-.82,2.09-.54.78-1.36,1.16-2.44,1.16h-21.18V35.4Z"/>
  <path class="cls-2" d="M522.75,105.23h11.29c1.24,0,2.07.31,2.5.93.42.62.64,1.36.64,2.21v7.1c0,.62-.25,1.32-.76,2.09-.51.78-1.3,1.17-2.38,1.17h-70.42c-1.24,0-2.07-.31-2.5-.93s-.64-1.32-.64-2.09v-6.87c0-.85.25-1.67.76-2.44.51-.77,1.3-1.16,2.38-1.16h14.78c-.54-.85-1.18-2.27-1.92-4.25-.74-1.98-1.11-4.52-1.11-7.62s.62-6.28,1.86-9.31c1.24-3.03,2.99-5.7,5.24-8.03,2.25-2.33,4.98-4.21,8.21-5.64,3.22-1.43,6.77-2.15,10.65-2.15,3.26,0,6.21.54,8.85,1.63,2.64,1.09,4.89,2.62,6.75,4.6,1.86,1.98,3.3,4.36,4.31,7.16,1.01,2.79,1.51,5.9,1.51,9.31v14.32ZM484.34,54.25c0-1.86.66-3.45,1.98-4.77,1.32-1.32,2.99-1.98,5.01-1.98s3.68.66,5.01,1.98c1.32,1.32,1.98,2.91,1.98,4.77s-.66,3.45-1.98,4.77c-1.32,1.32-2.99,1.98-5.01,1.98s-3.68-.66-5.01-1.98c-1.32-1.32-1.98-2.91-1.98-4.77M509.37,105.23v-14.9c0-1.08-.17-2.17-.52-3.26-.35-1.09-.91-2.08-1.69-2.97-.78-.89-1.75-1.61-2.91-2.15-1.16-.54-2.6-.82-4.31-.82-1.47,0-2.89.29-4.25.87-1.36.58-2.56,1.4-3.61,2.44-1.05,1.05-1.88,2.31-2.5,3.78-.62,1.48-.93,3.14-.93,5.01,0,2.79.54,4.98,1.63,6.57,1.08,1.59,2.29,2.81,3.61,3.67,1.47.93,3.26,1.52,5.35,1.75h10.12ZM502.5,54.25c0-1.86.66-3.45,1.98-4.77,1.32-1.32,2.99-1.98,5.01-1.98s3.68.66,5.01,1.98c1.32,1.32,1.98,2.91,1.98,4.77s-.66,3.45-1.98,4.77c-1.32,1.32-2.99,1.98-5.01,1.98s-3.68-.66-5.01-1.98-1.98-2.91-1.98-4.77"/>
  <path class="cls-2" d="M533.23,118.73c-1.09,0-1.86-.31-2.33-.93-.47-.62-.7-1.32-.7-2.09v-6.87c0-.85.25-1.67.76-2.44.51-.77,1.26-1.16,2.27-1.16h15.95v-32.82h13.27v46.32h-29.21ZM539.28,54.25c0-1.86.66-3.45,1.98-4.77,1.32-1.32,2.99-1.98,5.01-1.98s3.68.66,5.01,1.98c1.32,1.32,1.98,2.91,1.98,4.77s-.66,3.45-1.98,4.77c-1.32,1.32-2.99,1.98-5.01,1.98s-3.68-.66-5.01-1.98c-1.32-1.32-1.98-2.91-1.98-4.77M557.44,54.25c0-1.86.66-3.45,1.98-4.77,1.32-1.32,2.99-1.98,5.01-1.98s3.68.66,5.01,1.98c1.32,1.32,1.98,2.91,1.98,4.77s-.66,3.45-1.98,4.77c-1.32,1.32-2.99,1.98-5.01,1.98s-3.68-.66-5.01-1.98c-1.32-1.32-1.98-2.91-1.98-4.77"/>
  <path class="cls-2" d="M593.52,135.14c-1.4-.39-2.79-.58-4.19-.58-1.16,0-2.13.33-2.91.99-.77.66-1.16,1.65-1.16,2.97,0,1.16.52,2.25,1.57,3.26,1.05,1.01,2.7,1.51,4.95,1.51h3.61v6.17h-19.67v-6.17h5.24c-.62-.85-1.2-1.79-1.75-2.79-.54-1.01-.82-2.17-.82-3.49,0-2.25.85-4.23,2.56-5.94,1.71-1.71,4.31-2.56,7.8-2.56.93,0,1.92.08,2.97.23,1.05.16,2,.35,2.85.58l-1.05,5.82ZM579.9,35.4h13.15v83.33h-13.15V35.4Z"/>
</svg>